<svg width="40" height="40" viewBox="0 0 40 40" fill="none" xmlns="http://www.w3.org/2000/svg">
<path d="M15 18.75C14.3096 18.75 13.75 19.3097 13.75 20C13.75 20.6903 14.3096 21.25 15 21.25H25C25.6903 21.25 26.25 20.6903 26.25 20C26.25 19.3097 25.6903 18.75 25 18.75H15Z" fill="#3F51B5"/>
<path d="M15 23.75C14.3096 23.75 13.75 24.3097 13.75 25C13.75 25.6903 14.3096 26.25 15 26.25H25C25.6903 26.25 26.25 25.6903 26.25 25C26.25 24.3097 25.6903 23.75 25 23.75H15Z" fill="#3F51B5"/>
<path fill-rule="evenodd" clip-rule="evenodd" d="M12.5 2.5C13.1903 2.5 13.75 3.05965 13.75 3.75V5H18.75V3.75C18.75 3.05965 19.3097 2.5 20 2.5C20.6903 2.5 21.25 3.05965 21.25 3.75V5H26.25V3.75C26.25 3.05965 26.8097 2.5 27.5 2.5C28.1903 2.5 28.75 3.05965 28.75 3.75V5H31.25C31.913 5 32.549 5.2634 33.0178 5.73223C33.4867 6.20108 33.75 6.83697 33.75 7.5V31.25C33.75 32.5762 33.2232 33.8478 32.2855 34.7855C31.3478 35.7232 30.076 36.25 28.75 36.25H11.25C9.92392 36.25 8.65215 35.7232 7.71447 34.7855C6.77678 33.8478 6.25 32.5762 6.25 31.25V7.5C6.25 6.83695 6.5134 6.20107 6.98223 5.73223C7.45107 5.2634 8.08695 5 8.75 5H11.25V3.75C11.25 3.05965 11.8096 2.5 12.5 2.5ZM21.25 7.5H26.25V8.75C26.25 9.44035 26.8097 10 27.5 10C28.1903 10 28.75 9.44035 28.75 8.75V7.5H31.25V31.25C31.25 31.913 30.9867 32.549 30.5178 33.0178C30.049 33.4867 29.413 33.75 28.75 33.75H11.25C10.5869 33.75 9.95107 33.4867 9.48223 33.0178C9.0134 32.549 8.75 31.913 8.75 31.25V7.5H11.25V8.75C11.25 9.44035 11.8096 10 12.5 10C13.1903 10 13.75 9.44035 13.75 8.75V7.5H18.75V8.75C18.75 9.44035 19.3097 10 20 10C20.6903 10 21.25 9.44035 21.25 8.75V7.5Z" fill="#3F51B5"/>
</svg>
