<svg width="40" height="40" viewBox="0 0 40 40" fill="none" xmlns="http://www.w3.org/2000/svg">
<path fill-rule="evenodd" clip-rule="evenodd" d="M0.5 20C0.5 9.23045 9.23045 0.5 20 0.5C30.7696 0.5 39.5 9.23046 39.5 20C39.5 25.7193 37.0379 30.8634 33.1157 34.4304C33.0687 34.4789 33.018 34.5246 32.9639 34.567C29.5183 37.6356 24.9769 39.5 20 39.5C15.0208 39.5 10.4774 37.6338 7.03125 34.5626C6.98108 34.523 6.93395 34.4805 6.88996 34.4355C2.96452 30.8683 0.5 25.722 0.5 20ZM9.88721 33.0387C12.6804 35.2082 16.1894 36.5 20 36.5C23.8109 36.5 27.32 35.2081 30.1133 33.0383C29.139 31.5131 27.8291 30.2233 26.2777 29.271C24.4297 28.1366 22.3093 27.5246 20.1427 27.4989C20.0952 27.4996 20.0477 27.5 20 27.5C19.9524 27.5 19.905 27.4996 19.8576 27.4989C17.6912 27.5247 15.571 28.1366 13.723 29.271C12.1715 30.2233 10.8616 31.5132 9.88721 33.0387ZM14.4308 25.5704C13.6438 25.8852 12.8818 26.2673 12.1536 26.7143C10.3732 27.8071 8.84724 29.2556 7.66669 30.9611C5.07463 28.0467 3.5 24.2072 3.5 20C3.5 10.8873 10.8873 3.5 20 3.5C29.1128 3.5 36.5 10.8873 36.5 20C36.5 24.207 34.9256 28.0462 32.3337 30.9606C31.1533 29.2553 29.6273 27.807 27.8471 26.7143C27.1188 26.2672 26.3566 25.885 25.5695 25.5703C27.6588 23.9221 29 21.3677 29 18.5C29 13.5294 24.9706 9.5 20 9.5C15.0294 9.5 11 13.5294 11 18.5C11 21.3678 12.3413 23.9223 14.4308 25.5704ZM20.1304 24.4986C20.0871 24.4982 20.0438 24.498 20.0004 24.498C19.9568 24.498 19.9133 24.4982 19.8698 24.4986C16.6162 24.4293 14 21.7703 14 18.5C14 15.1863 16.6863 12.5 20 12.5C23.3138 12.5 26 15.1863 26 18.5C26 21.7702 23.384 24.4292 20.1304 24.4986Z" fill="#D5D5D6"/>
</svg>
